<svg width="821" height="456" viewBox="0 0 821 456" fill="none" xmlns="http://www.w3.org/2000/svg">
<g filter="url(#filter0_d)">
<path d="M228 326C298.692 326 356 268.692 356 198C356 127.308 298.692 70 228 70C157.308 70 100 127.308 100 198C100 268.692 157.308 326 228 326Z" fill="white"/>
<path d="M113.844 198C113.844 133.875 165.681 82.4222 229.422 82.4222C293.162 82.4222 344.999 134.259 344.999 198C344.999 261.741 293.162 313.578 229.422 313.578C165.681 313.194 113.844 261.741 113.844 198Z" fill="#2A6DB6"/>
<path d="M122.824 126.934H291.661V171.445H235.254V306.898H179.615V171.445H122.824V126.934Z" fill="white"/>
<path d="M339.629 187.945L330.804 194.852C325.815 188.329 320.059 183.724 313.153 180.271C306.246 176.817 298.571 175.282 290.513 175.282C281.304 175.282 273.246 177.584 265.188 181.805C257.513 186.026 251.374 192.166 247.153 199.456C242.932 206.747 240.63 215.189 240.63 224.014C240.63 237.828 245.234 249.34 254.827 258.549C264.42 267.758 276.316 272.363 290.897 272.363C306.629 272.363 320.059 266.224 330.804 253.561L339.629 260.468C333.873 267.758 326.966 273.13 318.525 277.351C310.083 281.189 300.49 283.107 290.129 283.107C270.176 283.107 254.444 276.584 243.316 263.154C233.723 252.026 228.734 238.596 228.734 222.863C228.734 206.363 234.49 192.166 246.385 181.038C257.897 169.526 272.478 164.154 290.129 164.154C300.874 164.154 310.467 166.073 318.908 170.294C326.966 174.515 334.257 180.271 339.629 187.945Z" fill="white"/>
</g>
<g filter="url(#filter1_d)">
<path d="M398.319 149.264H386V140.429H421.229V149.264H408.694V187.252H398.319V149.264Z" fill="white"/>
<path d="M450.623 176.43C450.623 180.847 450.839 184.602 450.839 187.252H441.761L441.329 182.393H441.113C439.816 184.381 436.79 187.915 430.739 187.915C424.039 187.915 419.068 183.498 419.068 173.117V153.24H429.442V171.571C429.442 176.43 430.955 179.522 434.629 179.522C437.439 179.522 439.168 177.534 439.816 175.768C440.032 175.105 440.248 174.442 440.248 173.559V153.24H450.623V176.43Z" fill="white"/>
<path d="M480.448 186.59C478.503 187.473 475.045 188.136 471.155 188.136C460.348 188.136 453.432 181.289 453.432 170.688C453.432 160.749 460.132 152.577 472.452 152.577C475.261 152.577 478.071 153.019 480.448 153.902L478.719 161.853C477.423 161.19 475.694 160.749 472.884 160.749C467.481 160.749 463.806 164.724 464.023 170.246C464.023 176.43 468.129 179.743 473.1 179.743C475.477 179.743 477.423 179.301 478.936 178.639L480.448 186.59Z" fill="white"/>
<path d="M493.2 167.816C494.065 166.27 494.929 164.945 495.794 163.62L502.494 153.24H515.029L503.142 166.933L516.758 187.252H504.007L496.01 173.338L493.416 176.651V187.252H483.042V138H493.416V167.816H493.2Z" fill="white"/>
<path d="M526.916 173.559C527.348 177.976 531.455 180.185 536.21 180.185C539.668 180.185 542.694 179.743 545.503 178.639L546.8 185.706C543.342 187.252 539.236 187.915 534.697 187.915C523.458 187.915 516.974 181.289 516.974 170.467C516.974 161.853 522.377 152.356 533.832 152.356C544.639 152.356 548.745 160.97 548.745 169.363C548.745 171.129 548.529 172.675 548.313 173.559H526.916ZM539.019 166.491C539.019 164.062 537.939 159.645 533.184 159.645C528.861 159.645 526.916 163.841 526.7 166.491H539.019Z" fill="white"/>
<path d="M555.013 164.503C555.013 159.424 555.013 156.332 554.797 153.239H563.658L564.09 159.644H564.306C566.036 154.565 569.926 152.577 573.384 152.577C574.248 152.577 574.897 152.577 575.545 152.798V162.737C574.681 162.516 573.816 162.516 572.736 162.516C568.845 162.516 566.252 164.503 565.603 167.816C565.387 168.479 565.387 169.362 565.387 170.246V187.473H555.013V164.503Z" fill="white"/>
<path d="M430.09 208.306L426.632 211.177C424.687 208.527 422.31 206.539 419.716 205.214C416.906 203.889 414.097 203.226 410.639 203.226C407.181 203.226 403.723 204.109 400.697 205.876C397.671 207.643 395.294 210.073 393.565 212.944C391.835 215.815 390.971 219.128 390.971 222.883C390.971 228.404 392.916 233.042 396.59 236.797C400.265 240.552 405.019 242.319 410.639 242.319C416.906 242.319 422.094 239.889 426.416 234.809L429.874 237.46C427.713 240.331 424.903 242.54 421.445 244.086C418.203 245.632 414.313 246.515 410.206 246.515C402.426 246.515 396.158 243.865 391.619 238.564C387.729 234.147 386 228.625 386 222.22C386 215.594 388.377 209.852 392.916 205.435C397.455 201.017 403.29 198.588 410.206 198.588C414.313 198.588 418.203 199.471 421.445 201.017C425.335 203.005 427.929 205.214 430.09 208.306Z" fill="white"/>
<path d="M468.129 211.84V245.632H464.023V239.889C462.294 242.098 460.348 243.865 457.971 244.969C455.81 246.073 453.432 246.736 450.623 246.736C445.868 246.736 441.977 244.969 438.735 241.435C435.493 237.902 433.764 233.705 433.764 228.846C433.764 223.987 435.493 219.791 438.735 216.478C441.977 212.944 446.084 211.398 450.839 211.398C453.648 211.398 456.026 212.061 458.187 213.165C460.348 214.269 462.294 216.036 464.023 218.466V212.281H468.129V211.84ZM451.271 215.153C448.894 215.153 446.732 215.815 444.787 216.92C442.842 218.024 441.113 219.791 440.032 221.999C438.952 224.208 438.303 226.417 438.303 228.846C438.303 231.276 438.952 233.484 440.032 235.693C441.329 237.902 442.842 239.448 444.787 240.773C446.732 241.877 448.894 242.54 451.271 242.54C453.648 242.54 455.81 241.877 457.971 240.773C460.132 239.668 461.645 237.902 462.726 235.914C463.806 233.926 464.455 231.497 464.455 229.067C464.455 225.091 463.158 221.999 460.781 219.349C457.971 216.478 454.945 215.153 451.271 215.153Z" fill="white"/>
<path d="M494.497 215.374L491.687 218.245C489.31 216.036 487.148 214.932 484.987 214.932C483.69 214.932 482.394 215.374 481.529 216.257C480.448 217.14 480.016 218.245 480.016 219.57C480.016 220.674 480.448 221.779 481.313 222.662C482.177 223.766 483.906 224.871 486.5 226.196C489.742 227.963 491.903 229.509 492.984 231.055C494.065 232.601 494.713 234.368 494.713 236.355C494.713 239.227 493.848 241.435 491.903 243.423C489.958 245.411 487.581 246.294 484.771 246.294C482.826 246.294 481.097 245.853 479.368 244.969C477.639 244.086 476.126 242.981 475.045 241.435L477.639 238.343C479.8 240.773 482.177 242.098 484.555 242.098C486.284 242.098 487.797 241.435 488.877 240.331C490.174 239.227 490.606 237.902 490.606 236.355C490.606 235.03 490.174 233.926 489.526 233.043C488.661 232.159 486.932 230.834 484.123 229.509C481.097 227.963 479.152 226.417 478.071 224.871C476.99 223.325 476.558 221.558 476.558 219.57C476.558 216.92 477.423 214.932 479.152 213.165C480.881 211.398 483.042 210.515 485.635 210.515C488.229 210.956 491.255 212.502 494.497 215.374Z" fill="white"/>
<path d="M505.519 199.251H509.842V211.84H516.542V215.594H509.842V245.632H505.519V215.594H499.9V211.84H505.736V199.251H505.519Z" fill="white"/>
<path d="M522.377 198.809H526.7V245.632H522.377V198.809Z" fill="white"/>
<path d="M563.226 234.368L566.9 236.355C565.819 238.785 564.306 240.552 562.794 242.098C561.281 243.644 559.552 244.748 557.606 245.411C555.661 246.073 553.5 246.515 551.123 246.515C545.719 246.515 541.613 244.748 538.587 240.994C535.561 237.46 534.048 233.263 534.048 228.846C534.048 224.65 535.345 220.674 537.939 217.361C541.181 213.165 545.503 210.956 551.123 210.956C556.742 210.956 561.281 213.165 564.523 217.582C566.9 220.674 568.197 224.429 568.197 229.067H538.371C538.371 233.043 539.668 236.135 542.045 238.785C544.423 241.214 547.448 242.54 550.906 242.54C552.636 242.54 554.148 242.319 555.877 241.656C557.39 240.994 558.903 240.331 559.984 239.227C560.632 238.122 561.929 236.576 563.226 234.368ZM563.226 225.312C562.577 223.104 561.929 221.116 560.848 219.791C559.768 218.466 558.255 217.361 556.526 216.478C554.797 215.594 552.852 215.153 550.906 215.153C547.665 215.153 544.855 216.257 542.477 218.245C540.748 219.791 539.452 222.22 538.587 225.312H563.226Z" fill="white"/>
<path d="M576.194 245.411V198.809H580.516V217.582C582.245 215.373 584.19 213.607 586.568 212.502C588.729 211.398 591.107 210.735 593.916 210.735C598.671 210.735 602.561 212.502 605.803 216.036C609.045 219.57 610.774 223.766 610.774 228.625C610.774 233.484 609.045 237.681 605.803 241.214C602.561 244.748 598.455 246.294 593.7 246.294C591.106 246.294 588.513 245.632 586.352 244.527C584.19 243.423 582.245 241.656 580.516 239.227V245.411H576.194ZM593.052 242.098C595.429 242.098 597.59 241.435 599.536 240.331C601.481 239.227 603.21 237.46 604.29 235.251C605.371 233.042 606.019 230.834 606.019 228.404C606.019 225.975 605.371 223.766 604.29 221.558C602.994 219.349 601.481 217.803 599.536 216.478C597.59 215.373 595.429 214.711 593.052 214.711C590.674 214.711 588.513 215.373 586.352 216.478C584.19 217.582 582.677 219.349 581.597 221.337C580.516 223.325 579.868 225.754 579.868 228.183C579.868 232.159 581.165 235.251 583.542 237.901C586.352 240.773 589.377 242.098 593.052 242.098Z" fill="white"/>
<path d="M642.978 234.368L646.652 236.355C645.571 238.785 644.058 240.552 642.545 242.098C641.032 243.644 639.303 244.748 637.358 245.411C635.413 246.073 633.252 246.515 630.874 246.515C625.471 246.515 621.365 244.748 618.339 240.994C615.313 237.46 613.8 233.263 613.8 228.846C613.8 224.65 615.097 220.674 617.69 217.361C620.932 213.165 625.255 210.956 630.874 210.956C636.494 210.956 641.032 213.165 644.274 217.582C646.652 220.674 647.948 224.429 647.948 229.067H618.123C618.123 233.043 619.419 236.135 621.797 238.785C624.174 241.214 627.2 242.54 630.658 242.54C632.387 242.54 633.9 242.319 635.629 241.656C637.142 240.994 638.655 240.331 639.736 239.227C640.384 238.122 641.681 236.576 642.978 234.368ZM642.978 225.312C642.329 223.104 641.681 221.116 640.6 219.791C639.519 218.466 638.007 217.361 636.278 216.478C634.548 215.594 632.603 215.153 630.658 215.153C627.416 215.153 624.607 216.257 622.229 218.245C620.5 219.791 619.203 222.22 618.339 225.312H642.978Z" fill="white"/>
<path d="M654 211.84H658.323V216.699C659.619 214.711 660.916 213.386 662.429 212.281C663.942 211.398 665.455 210.735 666.968 210.735C668.048 210.735 669.345 211.177 670.642 211.84L668.481 215.594C667.616 215.153 666.752 214.932 666.319 214.932C664.806 214.932 663.51 215.594 662.213 216.699C660.916 217.803 659.836 219.791 659.187 222.22C658.755 224.208 658.323 227.963 658.323 233.926V245.411H654V211.84Z" fill="white"/>
<path d="M672.587 211.84H676.91V216.699C678.206 214.711 679.503 213.386 681.016 212.281C682.529 211.398 684.042 210.735 685.555 210.735C686.635 210.735 687.932 211.177 689.229 211.84L687.068 215.594C686.203 215.153 685.339 214.932 684.906 214.932C683.394 214.932 682.097 215.594 680.8 216.699C679.503 217.803 678.423 219.791 677.774 222.22C677.342 224.208 676.91 227.963 676.91 233.926V245.411H672.587V211.84Z" fill="white"/>
<path d="M689.445 211.84H693.984L705.439 237.902L716.461 211.84H721L701.332 258H696.577L702.845 243.202L689.445 211.84Z" fill="white"/>
</g>
<defs>
<filter id="filter0_d" x="0" y="0" width="456" height="456" filterUnits="userSpaceOnUse" color-interpolation-filters="sRGB">
<feFlood flood-opacity="0" result="BackgroundImageFix"/>
<feColorMatrix in="SourceAlpha" type="matrix" values="0 0 0 0 0 0 0 0 0 0 0 0 0 0 0 0 0 0 127 0"/>
<feOffset dy="30"/>
<feGaussianBlur stdDeviation="50"/>
<feColorMatrix type="matrix" values="0 0 0 0 0.106528 0 0 0 0 0.290844 0 0 0 0 0.491667 0 0 0 0.5 0"/>
<feBlend mode="normal" in2="BackgroundImageFix" result="effect1_dropShadow"/>
<feBlend mode="normal" in="SourceGraphic" in2="effect1_dropShadow" result="shape"/>
</filter>
<filter id="filter1_d" x="286" y="38" width="535" height="320" filterUnits="userSpaceOnUse" color-interpolation-filters="sRGB">
<feFlood flood-opacity="0" result="BackgroundImageFix"/>
<feColorMatrix in="SourceAlpha" type="matrix" values="0 0 0 0 0 0 0 0 0 0 0 0 0 0 0 0 0 0 127 0"/>
<feOffset/>
<feGaussianBlur stdDeviation="50"/>
<feColorMatrix type="matrix" values="0 0 0 0 0.106528 0 0 0 0 0.290844 0 0 0 0 0.491667 0 0 0 1 0"/>
<feBlend mode="normal" in2="BackgroundImageFix" result="effect1_dropShadow"/>
<feBlend mode="normal" in="SourceGraphic" in2="effect1_dropShadow" result="shape"/>
</filter>
</defs>
</svg>
